<?xml version="1.0" standalone="no"?>
<!DOCTYPE svg PUBLIC "-//W3C//DTD SVG 20010904//EN"
 "http://www.w3.org/TR/2001/REC-SVG-20010904/DTD/svg10.dtd">
<svg version="1.0" xmlns="http://www.w3.org/2000/svg"
 width="808.000000pt" height="808.000000pt" viewBox="0 0 808.000000 808.000000"
 preserveAspectRatio="xMidYMid meet">
<metadata>
Created by potrace 1.14, written by Peter Selinger 2001-2017
</metadata>
<g transform="translate(0.000000,808.000000) scale(0.100000,-0.100000)"
fill="#000000" stroke="none">
<path d="M3759 8076 c-2 -2 -40 -6 -84 -10 -188 -14 -428 -55 -655 -111 -414
-102 -899 -323 -1274 -582 -93 -64 -289 -213 -306 -232 -3 -3 -34 -31 -70 -61
-150 -127 -373 -364 -518 -549 -457 -586 -728 -1243 -829 -2016 -24 -186 -24
-746 0 -930 26 -197 27 -200 59 -355 124 -606 384 -1167 768 -1660 54 -69 122
-152 151 -185 89 -100 285 -296 358 -358 37 -32 77 -66 89 -77 46 -43 284
-218 387 -285 357 -232 733 -399 1165 -519 120 -33 342 -79 445 -91 22 -3 51
-7 65 -10 112 -20 277 -29 525 -30 327 0 488 14 790 71 158 29 373 87 529 141
175 61 270 100 486 201 71 33 288 156 380 215 609 392 1101 932 1427 1567 131
254 241 541 307 796 30 116 54 219 60 254 2 14 7 43 11 65 4 22 9 49 11 60 2
11 7 40 10 65 3 25 7 52 9 60 20 75 29 790 13 965 -12 120 -47 330 -83 485 -3
15 -8 34 -39 155 -109 429 -361 945 -650 1330 -490 653 -1148 1139 -1911 1408
-198 70 -549 159 -715 181 -254 34 -317 39 -601 42 -168 2 -308 2 -310 0z"/>
</g>
</svg>
